<?xml version="1.0" encoding="UTF-8" standalone="no"?>
<!-- Created with Inkscape (http://www.inkscape.org/) -->

<svg
   xmlns:osb="http://www.openswatchbook.org/uri/2009/osb"
   xmlns:dc="http://purl.org/dc/elements/1.1/"
   xmlns:cc="http://creativecommons.org/ns#"
   xmlns:rdf="http://www.w3.org/1999/02/22-rdf-syntax-ns#"
   xmlns:svg="http://www.w3.org/2000/svg"
   xmlns="http://www.w3.org/2000/svg"
   xmlns:sodipodi="http://sodipodi.sourceforge.net/DTD/sodipodi-0.dtd"
   xmlns:inkscape="http://www.inkscape.org/namespaces/inkscape"
   width="800"
   height="500"
   id="svg2999"
   version="1.1"
   inkscape:version="0.48.2 r9819"
   sodipodi:docname="New document 4">
  <defs
     id="defs3001">
    <linearGradient
       id="linearGradient3899"
       osb:paint="solid">
      <stop
         style="stop-color:#ff0000;stop-opacity:1;"
         offset="0"
         id="stop3901" />
    </linearGradient>
  </defs>
  <sodipodi:namedview
     inkscape:document-units="mm"
     pagecolor="#ffffff"
     bordercolor="#666666"
     borderopacity="1.0"
     inkscape:pageopacity="0.0"
     inkscape:pageshadow="2"
     inkscape:zoom="1"
     inkscape:cx="325.20606"
     inkscape:cy="368.16201"
     inkscape:current-layer="layer1"
     id="namedview3003"
     showgrid="false"
     units="px"
     showguides="true"
     inkscape:guide-bbox="true"
     inkscape:window-width="1187"
     inkscape:window-height="758"
     inkscape:window-x="60"
     inkscape:window-y="24"
     inkscape:window-maximized="0">
    <sodipodi:guide
       orientation="0,1"
       position="50,351"
       id="guide3008" />
  </sodipodi:namedview>
  <metadata
     id="metadata3005">
    <rdf:RDF>
      <cc:Work
         rdf:about="">
        <dc:format>image/svg+xml</dc:format>
        <dc:type
           rdf:resource="http://purl.org/dc/dcmitype/StillImage" />
        <dc:title></dc:title>
      </cc:Work>
    </rdf:RDF>
  </metadata>
  <g
     inkscape:label="Layer 1"
     inkscape:groupmode="layer"
     id="layer1"
     transform="translate(0,-244.09448)">
    <path
       style="fill:none;stroke:#000000;stroke-width:1px;stroke-linecap:butt;stroke-linejoin:miter;stroke-opacity:1"
       d="m 729.11775,526.99397 c 0,0 -11,-37 -22,-29 -11,8 -15,19 -11,31 4,12 -8,26 -19,25 -11,-1 -17,24 -17,24 0,0 16.58936,19.48751 39,0 23,-20 30,-51 30,-51 z"
       id="path3012"
       inkscape:connector-curvature="0"
       sodipodi:nodetypes="cssscsc" />
    <path
       style="fill:none;stroke:#000000;stroke-width:1px;stroke-linecap:butt;stroke-linejoin:miter;stroke-opacity:1"
       d="m 556.87689,689.43763 c 0,0 8.49346,3.92084 28,3 14.41001,-0.68025 20.1598,-15.69989 44.58579,-15.65685 23.23284,0.0409 36.33578,15.64048 49.41421,17.65685 13.28019,2.04748 24,-1 24,-1"
       id="path3016"
       inkscape:connector-curvature="0"
       sodipodi:nodetypes="csssc" />
    <path
       style="fill:none;stroke:#000000;stroke-width:1px;stroke-linecap:butt;stroke-linejoin:miter;stroke-opacity:1"
       d="m 661.85195,687.52594 c 0,0 11.90401,2.68278 17.67767,1.41421 8.45222,-1.85709 14.83424,-9.69075 24.74874,-10.6066 11.6112,-1.07259 23.17244,8.17005 33.23402,7.77817 3.89861,-0.15184 8.48528,0 8.48528,0"
       id="path3018"
       inkscape:connector-curvature="0"
       sodipodi:nodetypes="csssc" />
    <path
       style="fill:none;stroke:#000000;stroke-width:0.7912972px;stroke-linecap:butt;stroke-linejoin:miter;stroke-opacity:1"
       d="m 676.75292,585.95009 c -0.11585,3.07075 -0.19842,6.13355 -0.28196,9.173 -0.81099,29.50453 22.08332,86.14324 22.08332,86.14324"
       id="path3099"
       inkscape:connector-curvature="0" />
    <path
       style="fill:none;stroke:#000000;stroke-width:1px;stroke-linecap:butt;stroke-linejoin:miter;stroke-opacity:1"
       d="M 674.93065 311.74092 C 674.92807 311.81394 674.9255 311.88695 674.92295 311.95996 "
       id="path3097"
       transform="translate(0,244.09448)" />
    <path
       style="fill:none;stroke:#000000;stroke-width:1px;stroke-linecap:butt;stroke-linejoin:miter;stroke-opacity:1"
       d="M 674.94633 311.30173 C 674.94105 311.44814 674.93582 311.59454 674.93065 311.74092 "
       id="path3095"
       transform="translate(0,244.09448)" />
    <path
       style="fill:none;stroke:#000000;stroke-width:1px;stroke-linecap:butt;stroke-linejoin:miter;stroke-opacity:1"
       d="M 674.94746 311.27044 C 674.94709 311.28087 674.94671 311.2913 674.94633 311.30173 "
       id="path3093"
       transform="translate(0,244.09448)" />
    <path
       style="fill:none;stroke:#000000;stroke-width:1px;stroke-linecap:butt;stroke-linejoin:miter;stroke-opacity:1"
       d="M 674.94859 311.23914 C 674.94822 311.24957 674.94784 311.26 674.94746 311.27044 "
       id="path3091"
       transform="translate(0,244.09448)" />
    <path
       style="fill:none;stroke:#000000;stroke-width:1px;stroke-linecap:butt;stroke-linejoin:miter;stroke-opacity:1"
       d="M 675.02241 309.29586 C 674.99658 309.9438 674.97203 310.59159 674.94859 311.23914 "
       id="path3089"
       transform="translate(0,244.09448)" />
    <path
       style="fill:none;stroke:#000000;stroke-width:1px;stroke-linecap:butt;stroke-linejoin:miter;stroke-opacity:1"
       d="M 675.04521 308.7321 C 675.0375 308.92003 675.0299 309.10795 675.02241 309.29586 "
       id="path3087"
       transform="translate(0,244.09448)" />
    <path
       style="fill:none;stroke:#000000;stroke-width:1px;stroke-linecap:butt;stroke-linejoin:miter;stroke-opacity:1"
       d="M 675.04907 308.63813 C 675.04778 308.66945 675.04649 308.70077 675.04521 308.7321 "
       id="path3085"
       transform="translate(0,244.09448)" />
    <path
       style="fill:none;stroke:#000000;stroke-width:1px;stroke-linecap:butt;stroke-linejoin:miter;stroke-opacity:1"
       d="M 675.05037 308.60681 C 675.04993 308.61725 675.0495 308.62769 675.04907 308.63813 "
       id="path3083"
       transform="translate(0,244.09448)" />
    <path
       style="fill:none;stroke:#000000;stroke-width:1px;stroke-linecap:butt;stroke-linejoin:miter;stroke-opacity:1"
       d="M 675.0674 308.19854 C 675.06166 308.33464 675.05598 308.47072 675.05037 308.60681 "
       id="path3081"
       transform="translate(0,244.09448)" />
    <path
       style="fill:none;stroke:#000000;stroke-width:1px;stroke-linecap:butt;stroke-linejoin:miter;stroke-opacity:1"
       d="M 600.33366 443.43146 C 600.33366 443.43146 579.63316 374.77439 577.70624 335.31371 C 575.46153 289.34505 577.15238 232.64618 615.89001 189.58012 C 625.81553 178.54555 635.69675 172.52016 650.53824 172.60956 C 669.49106 172.72373 696.89525 175.3772 703.57125 193.11566 C 713.89538 220.54739 700.32261 224.23742 688.0149 247.56288 C 678.29794 265.97838 675.95521 287.14537 675.0674 308.19854 "
       id="path3020"
       transform="translate(0,244.09448)" />
    <path
       style="fill:none;stroke:#000000;stroke-width:1px;stroke-linecap:butt;stroke-linejoin:miter;stroke-opacity:1"
       d="m 579.82756,291.4035 c 0,0 -19.36532,-7.56653 -22.62742,-16.26346 -3.99566,-10.65266 13.00681,-23.12928 7.77818,-33.23402 -3.74137,-7.23049 -14.84621,-11.58623 -22.62742,-9.19238 -8.93493,2.74879 -12.63531,14.45441 -15.55635,23.33452 -3.09681,9.41446 -4.78632,20.3791 -1.41421,29.69849 3.91656,10.82407 13.60956,19.29751 23.33452,25.45584 8.75507,5.54415 29.69849,9.19239 29.69849,9.19239"
       id="path3022"
       inkscape:connector-curvature="0"
       transform="translate(0,244.09448)"
       sodipodi:nodetypes="cssssssc" />
    <path
       style="fill:none;stroke:#000000;stroke-width:1px;stroke-linecap:butt;stroke-linejoin:miter;stroke-opacity:1"
       d="m -3,328 c 0,0 64.659239,-30.34386 103,-31 50.37891,-0.86215 91.63751,39.45153 142,41 61.53029,1.89184 126.74183,-34.08216 188,-28 62.41384,6.19691 87.46546,58.17084 150,63 0.56015,0.0433 3.59832,0.0817 4.1647,0.11528"
       id="path3026"
       transform="translate(0,244.09448)"
       inkscape:connector-curvature="0"
       sodipodi:nodetypes="cssssc" />
    <path
       style="fill:none;stroke:#000000;stroke-width:1px;stroke-linecap:butt;stroke-linejoin:miter;stroke-opacity:1"
       d="m 676.70119,368.47814 c 0,0 57.32516,-23.19908 79.54952,-22.27387 25.97002,1.08115 47.7297,32.88047 47.7297,32.88047"
       id="path3117"
       inkscape:connector-curvature="0"
       transform="translate(0,244.09448)"
       sodipodi:nodetypes="csc" />
    <path
       style="fill:none;stroke:#000000;stroke-width:1px;stroke-linecap:butt;stroke-linejoin:miter;stroke-opacity:1"
       d="m -4.2426406,158.89949 c 0,0 66.9943806,-53.04441 111.7228706,-40.73715 112.07389,30.83766 121.9925,62.89755 199.40411,101.82337 43.05303,21.64888 95.32013,53.68708 135.7645,74.95332 55.39297,29.12645 138.59293,43.84062 138.59293,43.84062"
       id="path3119"
       inkscape:connector-curvature="0"
       transform="translate(0,244.09448)"
       sodipodi:nodetypes="csssc" />
    <path
       style="fill:none;stroke:#000000;stroke-width:1px;stroke-linecap:butt;stroke-linejoin:miter;stroke-opacity:1"
       d="M 346.17901,241.82024 543.058,197.08326 c 151.21438,-49.52744 133.164,-67.86878 209.30362,-77.50671 0,0 14.78886,-2.5421 52.3259,-2.82843"
       id="path3121"
       inkscape:connector-curvature="0"
       transform="translate(0,244.09448)"
       sodipodi:nodetypes="ccsc" />
    <path
       style="fill:none;stroke:#000000;stroke-width:1px;stroke-linecap:butt;stroke-linejoin:miter;stroke-opacity:1"
       d="m 280.72139,205.49003 c 0,0 58.65117,-13.25152 88.38835,-12.37437 34.12234,1.0065 100.40916,20.15254 100.40916,20.15254"
       id="path3123"
       inkscape:connector-curvature="0"
       transform="translate(0,244.09448)"
       sodipodi:nodetypes="csc" />
    <path
       sodipodi:type="arc"
       style="fill:none;stroke:#000000;stroke-width:1px;stroke-linecap:butt;stroke-linejoin:miter;stroke-opacity:1"
       id="path3129"
       sodipodi:cx="87.5"
       sodipodi:cy="75"
       sodipodi:rx="65.5"
       sodipodi:ry="32"
       d="M 153,75 A 65.5,32 0 1 1 22,75 65.5,32 0 1 1 153,75 z"
       transform="matrix(0.49942891,0,0,1,172.01256,231.09448)" />
  </g>
</svg>
