<?xml version="1.0" encoding="UTF-8" standalone="no"?>
<!-- Created with Inkscape (http://www.inkscape.org/) -->

<svg
   xmlns:dc="http://purl.org/dc/elements/1.1/"
   xmlns:cc="http://creativecommons.org/ns#"
   xmlns:rdf="http://www.w3.org/1999/02/22-rdf-syntax-ns#"
   xmlns:svg="http://www.w3.org/2000/svg"
   xmlns="http://www.w3.org/2000/svg"
   xmlns:sodipodi="http://sodipodi.sourceforge.net/DTD/sodipodi-0.dtd"
   xmlns:inkscape="http://www.inkscape.org/namespaces/inkscape"
   width="297mm"
   height="210mm"
   id="svg3067"
   version="1.1"
   inkscape:version="0.48.2 r9819"
   sodipodi:docname="New document 3">
  <defs
     id="defs3069" />
  <sodipodi:namedview
     inkscape:document-units="mm"
     pagecolor="#ffffff"
     bordercolor="#666666"
     borderopacity="1.0"
     inkscape:pageopacity="0.0"
     inkscape:pageshadow="2"
     inkscape:zoom="0.86831672"
     inkscape:cx="510.01192"
     inkscape:cy="321.80737"
     inkscape:current-layer="layer1"
     id="namedview3071"
     showgrid="false"
     inkscape:window-width="1215"
     inkscape:window-height="713"
     inkscape:window-x="40"
     inkscape:window-y="40"
     inkscape:window-maximized="0" />
  <metadata
     id="metadata3073">
    <rdf:RDF>
      <cc:Work
         rdf:about="">
        <dc:format>image/svg+xml</dc:format>
        <dc:type
           rdf:resource="http://purl.org/dc/dcmitype/StillImage" />
        <dc:title></dc:title>
      </cc:Work>
    </rdf:RDF>
  </metadata>
  <g
     inkscape:label="Layer 1"
     inkscape:groupmode="layer"
     id="layer1">
    <path
       sodipodi:type="star"
       style="fill:#ff0000;fill-opacity:1"
       id="path3078"
       sodipodi:sides="5"
       sodipodi:cx="84.070709"
       sodipodi:cy="221.24379"
       sodipodi:r1="203.06364"
       sodipodi:r2="95.439911"
       sodipodi:arg1="0.88985529"
       sodipodi:arg2="1.5181738"
       inkscape:flatsided="false"
       inkscape:rounded="0.05"
       inkscape:randomized="0.005"
       d="M 212.9164,379.20318 C 207.56948,383.55724 96.658257,316.73897 89.790264,317.08294 82.922272,317.42691 -20.859547,395.60988 -26.66584,391.90486 -32.472134,388.19984 -2.6412867,261.89368 -5.0787027,255.45719 -7.5161188,249.0207 -114.27286,176.16805 -112.52464,169.51601 -110.77643,162.86398 18.361535,151.57352 23.693538,147.19377 29.02554,142.81403 65.830223,19.672286 72.693681,19.278608 79.557139,18.88493 129.8348,138.3424 135.59811,142.09208 c 5.76331,3.74968 135.99943,0.0387 138.47587,6.48398 2.47645,6.4453 -95.70511,90.41072 -97.44741,97.07413 -1.74231,6.66342 41.63675,129.19893 36.28983,133.55299 z"
       inkscape:transform-center-x="-15.97603"
       inkscape:transform-center-y="-2.816952"
       transform="matrix(0.9513215,0.30820028,-0.30820028,0.9513215,189.74824,125.36097)" />
    <path
       sodipodi:type="star"
       style="fill:#aa0000;fill-opacity:1"
       id="path3082"
       sodipodi:sides="5"
       sodipodi:cx="46.066139"
       sodipodi:cy="194.75575"
       sodipodi:r1="55.707661"
       sodipodi:r2="139.26915"
       sodipodi:arg1="0.97361967"
       sodipodi:arg2="1.6019382"
       inkscape:flatsided="false"
       inkscape:rounded="0.05"
       inkscape:randomized="0.005"
       d="m 76.783625,241.0988 c -4.103388,2.82258 -29.566517,92.38736 -34.546435,92.20574 -4.979918,-0.18162 -26.45022,-91.14176 -30.390332,-94.20475 -3.9401134,-3.06298 -98.215698,-1.19052 -99.595216,-5.97518 -1.379517,-4.78465 80.1424789,-53.03319 81.8288571,-57.7353 1.6863782,-4.70211 -29.9538021,-92.372078 -25.8178151,-95.168585 4.135987,-2.796507 74.226306,59.234085 79.208306,59.414115 4.982,0.18002 80.35987,-57.843137 84.31584,-54.796396 3.95596,3.04674 -33.803239,89.356546 -32.413618,94.153666 1.389618,4.79713 79.719428,58.84612 78.001998,63.53961 -1.71742,4.69348 -96.488197,-4.25551 -100.591585,-1.43292 z"
       inkscape:transform-center-x="-1.1666589"
       inkscape:transform-center-y="-12.590829"
       transform="translate(160.07984,169.29307)" />
    <path
       sodipodi:type="star"
       style="fill:#550000;fill-opacity:1"
       id="path3076"
       sodipodi:sides="5"
       sodipodi:cx="195.7811"
       sodipodi:cy="345.62238"
       sodipodi:r1="112.48537"
       sodipodi:r2="28.571283"
       sodipodi:arg1="0.74194727"
       sodipodi:arg2="1.3702658"
       inkscape:flatsided="false"
       inkscape:rounded="0.05"
       inkscape:randomized="0.005"
       d="m 278.95434,421.75869 c -3.09239,3.32568 -72.9489,-49.30324 -77.41173,-48.41241 -4.46284,0.89083 -48.23251,76.83407 -52.36363,74.94096 -4.13112,-1.89311 24.0969,-84.5339 21.88113,-88.49848 -2.21577,-3.96458 -88.11221,-22.1234 -87.600356,-26.63656 0.511854,-4.51315 88.185626,-3.35512 91.275886,-6.69274 3.09025,-3.33762 -6.1977,-90.05816 -1.74473,-90.96934 4.45296,-0.91119 30.39615,82.20018 34.54265,84.07043 4.14649,1.87024 84.41642,-33.17599 86.66582,-29.21214 2.24941,3.96384 -69.03589,54.10277 -69.55303,58.61158 -0.51714,4.5088 57.40039,69.47302 54.30799,72.7987 z"
       inkscape:transform-center-x="4.7691103"
       inkscape:transform-center-y="-5.765085"
       transform="translate(4.606614,17.274803)" />
  </g>
</svg>
