<?xml version="1.0" encoding="UTF-8" standalone="no"?>
<!-- Created with Inkscape (http://www.inkscape.org/) -->

<svg
   xmlns:dc="http://purl.org/dc/elements/1.1/"
   xmlns:cc="http://creativecommons.org/ns#"
   xmlns:rdf="http://www.w3.org/1999/02/22-rdf-syntax-ns#"
   xmlns:svg="http://www.w3.org/2000/svg"
   xmlns="http://www.w3.org/2000/svg"
   xmlns:sodipodi="http://sodipodi.sourceforge.net/DTD/sodipodi-0.dtd"
   xmlns:inkscape="http://www.inkscape.org/namespaces/inkscape"
   width="297mm"
   height="210mm"
   id="svg3079"
   version="1.1"
   inkscape:version="0.48.2 r9819"
   sodipodi:docname="jet.svg">
  <defs
     id="defs3081" />
  <sodipodi:namedview
     inkscape:document-units="mm"
     pagecolor="#ffffff"
     bordercolor="#666666"
     borderopacity="1.0"
     inkscape:pageopacity="0.0"
     inkscape:pageshadow="2"
     inkscape:zoom="0.9"
     inkscape:cx="434.80419"
     inkscape:cy="363.6791"
     inkscape:current-layer="layer1"
     id="namedview3083"
     showgrid="false"
     inkscape:window-width="1348"
     inkscape:window-height="806"
     inkscape:window-x="1"
     inkscape:window-y="15"
     inkscape:window-maximized="0" />
  <metadata
     id="metadata3085">
    <rdf:RDF>
      <cc:Work
         rdf:about="">
        <dc:format>image/svg+xml</dc:format>
        <dc:type
           rdf:resource="http://purl.org/dc/dcmitype/StillImage" />
        <dc:title></dc:title>
      </cc:Work>
    </rdf:RDF>
  </metadata>
  <g
     inkscape:label="Layer 1"
     inkscape:groupmode="layer"
     id="layer1">
    <path
       style="fill:none;stroke:#000000;stroke-width:1px;stroke-linecap:butt;stroke-linejoin:miter;stroke-opacity:1"
       d="m 270.0546,261.02952 c 9.75992,12.55772 3.7931,107.09962 19.89996,103.35059 98.77929,-22.99186 224.07948,-38.38221 266.69912,-60.7595 19.121,-10.03941 -7.2866,-182.31094 -7.2866,-182.31094 0,0 -7.71934,-23.221726 0,-26.582276 17.98117,-7.827956 45.36319,-36.002916 55.67998,-19.00357 29.12763,47.994656 42.48261,128.092266 56.79975,195.926656 5.46234,25.88049 38.00888,8.14085 63.42096,7.74098 14.02423,-0.22068 34.27987,8.34538 45.6183,16.60175 9.61682,7.00274 12.68302,24.27562 10.12658,36.70887 -2.72065,13.2319 -40.52379,40.78612 -53.52159,44.46608 -33.95028,9.61207 -56.82829,8.96352 -56.88088,29.25999 -0.0818,31.58404 -19.7611,143.49329 -38.34793,214.88152 -4.80767,18.46526 -49.59344,36.49007 -53.14833,15.15742 -13.31872,-79.92482 0.87045,-235.48298 -17.39694,-236.6764 -89.95074,-5.87651 -184.51875,6.00982 -269.31192,10.01298 -12.17218,0.57466 -3.46756,79.7653 -10.03662,111.81315 -0.81487,3.97544 -11.63593,3.58029 -11.63593,3.58029 l -15.3171,3.7075 c 0,0 -9.04875,3.18367 -9.84579,0 -8.56845,-34.22541 -2.53165,-118.35443 -2.53165,-118.35443 0,0 -61.68452,-25.38426 -88.60759,-44.3038 -15.43892,-10.84933 33.71166,-16.96543 50.63291,-25.31645 8.36094,-4.12632 39.24051,34.81012 39.24051,34.81012 0,0 -17.58848,-115.30259 -8.18289,-105.9211 40.1105,-11.11177 0.9233,-0.65501 33.93369,-8.78943 z"
       id="path3088"
       inkscape:connector-curvature="0"
       sodipodi:nodetypes="csscsssssssssssssccscssccc" />
    <path
       style="fill:none;stroke:#000000;stroke-width:0.6382522px;stroke-linecap:butt;stroke-linejoin:miter;stroke-opacity:1"
       d="m 755.03073,281.53995 c -21.21595,-44.00154 -20.4739,-29.48627 -25.72443,-54.86815 13.81671,-7.3793 33.93428,28.9306 41.49101,45.99242 7.73736,16.71579 9.417,59.05157 18.25606,77.46091 5.29807,11.03441 7.21391,18.46058 18.25604,24.20653 26.80117,13.94643 -4.03481,-22.10269 -12.44731,-37.92357 -5.95327,-11.19597 -30.36857,-35.24245 -39.83137,-54.86814 z"
       id="path3109"
       inkscape:connector-curvature="0"
       sodipodi:nodetypes="sccssss" />
    <path
       inkscape:connector-curvature="0"
       id="path3113"
       d="m 784.4166,286.21889 c 9.11274,-31.53838 5.34435,-37.61636 21.80559,-50.07495 11.30977,-8.55972 1.25251,19.50428 -0.67057,33.90256 -1.72637,12.92548 -20.82066,40.66053 -20.82066,40.66053 0,0 -15.76499,0.19244 -31.23071,35.33672 -4.89987,11.13448 -10.60836,23.70668 -9.05898,35.84317 2.95991,23.18541 15.98778,-20.79437 25.36778,-35.8164 8.1136,-12.99389 14.60755,-59.85163 14.60755,-59.85163 z"
       style="fill:none;stroke:#000000;stroke-width:0.62079698px;stroke-linecap:butt;stroke-linejoin:miter;stroke-opacity:1"
       sodipodi:nodetypes="csscsssc" />
    <path
       style="fill:none;stroke:#000000;stroke-width:1px;stroke-linecap:butt;stroke-linejoin:miter;stroke-opacity:1"
       d="m 515.38461,346.65859 c 101.28205,0 134.61539,3.84615 142.3077,1.28205 7.69231,-2.5641 97.67114,-10.2124 101.28205,-38.46154 1.42228,-11.12691 -14.88367,-16.05112 -25.64103,-19.23077 -19.01154,-5.61941 -44.54247,-0.66376 -64.10257,2.5641 -30.09985,4.96717 -52.07429,3.31272 -82.05128,8.97436 -19.19298,3.62491 -44.12571,4.37048 -60.2564,15.38462 -7.44499,5.08348 -67.94872,29.48718 -11.53847,29.48718 z"
       id="path3115"
       inkscape:connector-curvature="0"
       sodipodi:nodetypes="ssssssss" />
    <path
       style="fill:none;stroke:#000000;stroke-width:1px;stroke-linecap:butt;stroke-linejoin:miter;stroke-opacity:1"
       d="m 656.41026,346.65858 c 0,0 8.69038,15.94121 15.38461,21.79488 8.34572,7.2978 29.48719,15.38461 29.48719,15.38461"
       id="path3117"
       inkscape:connector-curvature="0"
       sodipodi:nodetypes="csc" />
    <path
       style="fill:none;stroke:#000000;stroke-width:1px;stroke-linecap:butt;stroke-linejoin:miter;stroke-opacity:1"
       d="m 558.97436,314.6073 c -14.82221,-4.50284 -39.36312,11.12474 -52.5641,19.23077 -2.33185,1.43187 -7.23978,2.52059 -6.41026,5.12821 2.20615,6.93506 15.80648,2.24342 23.07692,2.5641 14.52208,0.64054 38.89397,2.33705 47.43591,-3.84616 8.54986,-6.18895 -1.43942,-20.00892 -11.53847,-23.07692 z"
       id="path3119"
       inkscape:connector-curvature="0"
       sodipodi:nodetypes="ssssss" />
    <path
       style="fill:none;stroke:#000000;stroke-width:1px;stroke-linecap:butt;stroke-linejoin:miter;stroke-opacity:1"
       d="m 567.94872,301.78679 8.97436,19.23077 11.53846,15.38461 16.66667,11.53847"
       id="path3121"
       inkscape:connector-curvature="0" />
    <path
       style="fill:none;stroke:#000000;stroke-width:1px;stroke-linecap:butt;stroke-linejoin:miter;stroke-opacity:1"
       d="m 611.53846,299.22269 c 0,0 9.8579,14.82827 15.38462,21.79487 3.19821,4.03144 12.23699,6.78889 10.25641,11.53846 -6.09457,14.61523 -47.4359,2.5641 -47.4359,2.5641"
       id="path3123"
       inkscape:connector-curvature="0"
       sodipodi:nodetypes="cssc" />
    <path
       style="fill:none;stroke:#000000;stroke-width:1px;stroke-linecap:butt;stroke-linejoin:miter;stroke-opacity:1"
       d="m 658.97436,295.37653 c 0,0 4.08439,11.72484 7.69231,16.66667 4.10207,5.61868 17.5633,7.49576 15.38461,14.10256 -2.55693,7.7538 -24.35897,2.56411 -24.35897,2.56411"
       id="path3125"
       inkscape:connector-curvature="0"
       sodipodi:nodetypes="cssc" />
    <path
       style="fill:none;stroke:#000000;stroke-width:1px;stroke-linecap:butt;stroke-linejoin:miter;stroke-opacity:1"
       d="m 760.25641,295.37653 c 0,4.27351 0,8.54701 0,12.82052 0,0.57738 -0.19509,3.45598 0,3.84615 0.27028,0.54056 1.01177,0.74149 1.28205,1.28205 0.19112,0.38224 -0.19112,0.89982 0,1.28205 0.27028,0.54056 1.01177,0.74149 1.28205,1.28205 0.19112,0.38224 -0.30218,0.97987 0,1.28206 0.30219,0.30218 0.97987,-0.30219 1.28205,0 0.60437,0.60436 -0.60436,1.95973 0,2.5641 0.30219,0.30218 0.97987,-0.30218 1.28206,0 0.30218,0.30218 -0.30219,0.97987 0,1.28205 0.30218,0.30218 0.97986,-0.30218 1.28205,0 0.30218,0.30218 -0.19112,0.89982 0,1.28205 0.27028,0.54056 1.01177,0.74149 1.28205,1.28205 0.19111,0.38224 -0.30218,0.97987 0,1.28205 0.30218,0.30219 0.97987,-0.30218 1.28205,0 0.30218,0.30219 -0.30218,0.97987 0,1.28205 0.30218,0.30219 0.97987,-0.30218 1.28205,0 0.30218,0.30219 0,0.85471 0,1.28206 0.42735,0 0.89982,-0.19112 1.28205,0 0.54056,0.27028 0.74149,1.01177 1.28205,1.28205 0.46364,0.23181 5.51854,0 6.41026,0 0.42735,0 0.97987,0.30218 1.28205,0 0.30218,-0.30219 -0.19112,-0.89982 0,-1.28205 0.27028,-0.54056 1.01177,-0.7415 1.28205,-1.28206 0.19509,-0.39017 0,-3.26877 0,-3.84615 0,-0.47082 0.0516,-5.07661 0,-5.1282 -0.30218,-0.30219 -0.97987,0.30218 -1.28205,0 -0.60436,-0.60437 0.60437,-1.95974 0,-2.56411 -0.30218,-0.30218 -0.97987,0.30219 -1.28205,0 -0.30218,-0.30218 0.19112,-0.89981 0,-1.28205 -0.54056,-1.08112 -2.02354,-1.48298 -2.5641,-2.5641 0,-3.4188 0.42735,0.42735 -1.28205,-1.28205 -2.65261,-2.65261 4.05353,0.10369 -1.28206,-2.5641 -0.38223,-0.19112 -0.89981,0.19111 -1.28205,0 -5.33559,-2.6678 1.37056,0.0885 -1.28205,-2.56411 -0.30218,-0.30218 -0.97987,0.30219 -1.28205,0 -0.30218,-0.30218 0.30218,-0.97987 0,-1.28205 -2.65261,-2.65261 0.10369,4.05354 -2.5641,-1.28205 -0.19112,-0.38223 0.30218,-0.97987 0,-1.28205 -0.30218,-0.30218 -0.92648,0.23705 -1.28205,0 -2.27681,-1.51787 -4.27351,-3.4188 -6.41026,-5.12821 z"
       id="path3127"
       inkscape:connector-curvature="0" />
    <path
       style="fill:none;stroke:#000000;stroke-width:1px;stroke-linecap:butt;stroke-linejoin:miter;stroke-opacity:1"
       d="m 766.66667,313.32525 c -1.49257,-10.03273 4.78295,-0.9368 6.41025,-2.5641 0.30219,-0.30218 -0.30218,-0.97987 0,-1.28205 0.60437,-0.60437 1.95974,0.60436 2.56411,0 0.30218,-0.30218 -0.30219,-0.97987 0,-1.28205 0.64102,-0.64103 3.20512,0.64102 3.84615,0 0.30218,-0.30219 -0.30218,-0.97987 0,-1.28205 0.30218,-0.30219 0.8547,0 1.28205,0 0.67041,0 4.7911,-0.16856 5.12821,0 0.54056,0.27028 0.74149,1.01177 1.28205,1.28205 0.38223,0.19111 0.97987,-0.30219 1.28205,0 0.30218,0.30218 -0.30218,0.97987 0,1.28205 0.30218,0.30218 0.89982,-0.19112 1.28205,0 0.54056,0.27028 0.74149,1.01177 1.28205,1.28205 0.38223,0.19112 0.97987,-0.30218 1.28205,0 0.0581,0.0581 0,5.80577 0,6.41026 0,0.42735 0,0.8547 0,1.28205 0,0.42735 0.30218,0.97987 0,1.28205 -0.30218,0.30218 -0.97987,-0.30218 -1.28205,0 -0.30218,0.30218 0.30218,0.97987 0,1.28205 -0.30218,0.30218 -0.8547,0 -1.28205,0 -0.89172,0 -5.94662,0.23182 -6.41026,0 -3.16846,-1.58423 0.44254,-1.28205 -2.5641,-1.28205 -2.5641,0 -5.1282,0 -7.69231,0 -0.42735,0 -0.97987,0.30218 -1.28205,0 -1.93491,-1.93491 -3.4188,-4.27351 -5.1282,-6.41026 z"
       id="path3129"
       inkscape:connector-curvature="0" />
    <path
       style="fill:none;stroke:#000000;stroke-width:1px;stroke-linecap:butt;stroke-linejoin:miter;stroke-opacity:1"
       d="m 593.58974,419.73551 c 0,0 -8.48032,63.11053 -8.97436,94.87179 -0.52613,33.82414 5.12821,92.30769 5.12821,92.30769"
       id="path3139"
       inkscape:connector-curvature="0"
       sodipodi:nodetypes="csc" />
    <path
       style="fill:none;stroke:#000000;stroke-width:1px;stroke-linecap:butt;stroke-linejoin:miter;stroke-opacity:1"
       d="m 439.74359,399.22269 c 0,0 -23.19723,-10.25089 -20.51282,-19.23077 2.85742,-9.55864 29.48718,-5.12821 29.48718,-5.12821 l 60.25641,-7.6923 c 0,0 19.14443,8.03119 23.07692,16.66666 1.95625,4.29578 -1.28205,14.10257 -1.28205,14.10257"
       id="path3141"
       inkscape:connector-curvature="0"
       sodipodi:nodetypes="csccsc" />
    <path
       style="fill:none;stroke:#000000;stroke-width:1px;stroke-linecap:butt;stroke-linejoin:miter;stroke-opacity:1"
       d="m 565.38462,399.22269 c 0,0 36.47179,-8.34721 55.1282,-8.97436 18.34582,-0.61671 52.5641,5.1282 52.5641,5.1282"
       id="path3143"
       inkscape:connector-curvature="0"
       sodipodi:nodetypes="csc" />
    <path
       style="fill:none;stroke:#000000;stroke-width:1px;stroke-linecap:butt;stroke-linejoin:miter;stroke-opacity:1"
       d="m 569.23077,423.58166 c 0,0 37.30695,-9.6905 56.41026,-10.25641 14.19956,-0.42064 42.30769,5.12821 42.30769,5.12821"
       id="path3145"
       inkscape:connector-curvature="0"
       sodipodi:nodetypes="csc" />
    <path
       style="fill:none;stroke:#000000;stroke-width:1px;stroke-linecap:butt;stroke-linejoin:miter;stroke-opacity:1"
       d="m 570.51282,514.6073 26.92308,-8.97436"
       id="path3147"
       inkscape:connector-curvature="0" />
    <path
       style="fill:none;stroke:#000000;stroke-width:1px;stroke-linecap:butt;stroke-linejoin:miter;stroke-opacity:1"
       d="m 579.48718,633.83807 c -6.33933,0.9509 22.97421,-53.60319 42.30769,-75.64102 5.0178,-5.71969 10.85442,-16.85287 17.94872,-14.10257 7.27113,2.81886 3.84615,23.07693 3.84615,23.07693 l -12.82051,58.97435 z"
       id="path3149"
       inkscape:connector-curvature="0"
       sodipodi:nodetypes="sssccs" />
    <path
       style="fill:none;stroke:#000000;stroke-width:1px;stroke-linecap:butt;stroke-linejoin:miter;stroke-opacity:1"
       d="m 689.74359,377.42782 c 0,0 -17.60274,7.19735 -26.92308,7.6923 -9.96256,0.52905 -19.51196,-5.29383 -29.48718,-5.1282 -10.47518,0.17393 -20.46375,4.52433 -30.76923,6.41025 -16.17193,2.95949 -48.71795,7.69231 -48.71795,7.69231"
       id="path3151"
       inkscape:connector-curvature="0"
       sodipodi:nodetypes="csssc" />
    <path
       style="fill:none;stroke:#000000;stroke-width:1px;stroke-linecap:butt;stroke-linejoin:miter;stroke-opacity:1"
       d="M 579.48718,299.22269 567.94872,173.58166 557.69231,117.17141"
       id="path3153"
       inkscape:connector-curvature="0" />
    <path
       style="fill:none;stroke:#000000;stroke-width:1px;stroke-linecap:butt;stroke-linejoin:miter;stroke-opacity:1"
       d="M 547.4359,108.19705 603.84615,74.863713"
       id="path3155"
       inkscape:connector-curvature="0" />
    <path
       style="fill:none;stroke:#000000;stroke-width:1px;stroke-linecap:butt;stroke-linejoin:miter;stroke-opacity:1"
       d="m 622.87798,122.29961 c 0,0 15.86097,-7.15612 24.35897,-7.69231 4.76844,-0.30087 13.00483,-2.086 14.10257,2.56411 0.98185,4.15918 -6.42187,5.80572 -10.25641,7.6923 -7.16351,3.52442 -23.07693,6.41026 -23.07693,6.41026"
       id="path3157"
       inkscape:connector-curvature="0"
       sodipodi:nodetypes="csssc" />
    <path
       style="fill:none;stroke:#000000;stroke-width:1px;stroke-linecap:butt;stroke-linejoin:miter;stroke-opacity:1"
       d="m 645.9549,113.32525 2.5641,14.10257"
       id="path3159"
       inkscape:connector-curvature="0" />
    <path
       sodipodi:nodetypes="csssc"
       inkscape:connector-curvature="0"
       id="path3161"
       d="m 631.11183,147.39908 c 0,0 15.86097,-7.15612 24.35897,-7.69231 4.76844,-0.30087 13.00483,-2.086 14.10257,2.56411 0.98185,4.15918 -6.42187,5.80572 -10.25641,7.6923 -7.16351,3.52442 -23.07693,6.41026 -23.07693,6.41026"
       style="fill:none;stroke:#000000;stroke-width:1px;stroke-linecap:butt;stroke-linejoin:miter;stroke-opacity:1" />
    <path
       inkscape:connector-curvature="0"
       id="path3163"
       d="m 654.18875,138.42472 2.5641,14.10257"
       style="fill:none;stroke:#000000;stroke-width:1px;stroke-linecap:butt;stroke-linejoin:miter;stroke-opacity:1" />
    <path
       style="fill:none;stroke:#000000;stroke-width:1px;stroke-linecap:butt;stroke-linejoin:miter;stroke-opacity:1"
       d="m 640.28515,178.16831 c 0,0 15.86097,-7.15612 24.35897,-7.69231 4.76844,-0.30087 13.00483,-2.086 14.10257,2.56411 0.98185,4.15918 -6.42187,5.80572 -10.25641,7.6923 -7.16351,3.52442 -23.07693,6.41026 -23.07693,6.41026"
       id="path3165"
       inkscape:connector-curvature="0"
       sodipodi:nodetypes="csssc" />
    <path
       style="fill:none;stroke:#000000;stroke-width:1px;stroke-linecap:butt;stroke-linejoin:miter;stroke-opacity:1"
       d="m 663.36207,169.19395 2.5641,14.10257"
       id="path3167"
       inkscape:connector-curvature="0" />
    <path
       sodipodi:nodetypes="csssc"
       inkscape:connector-curvature="0"
       id="path3169"
       d="m 662.88045,457.54098 c 0,0 17.38015,-0.84323 25.48306,1.7733 4.54675,1.4682 12.86414,2.82684 12.18071,7.55563 -0.61127,4.22956 -8.10316,3.04724 -12.36235,3.39672 -7.95683,0.65288 -23.82028,-2.4961 -23.82028,-2.4961"
       style="fill:none;stroke:#000000;stroke-width:1px;stroke-linecap:butt;stroke-linejoin:miter;stroke-opacity:1" />
    <path
       inkscape:connector-curvature="0"
       id="path3171"
       d="m 687.64073,457.65149 -2.78446,14.06072"
       style="fill:none;stroke:#000000;stroke-width:1px;stroke-linecap:butt;stroke-linejoin:miter;stroke-opacity:1" />
    <path
       style="fill:none;stroke:#000000;stroke-width:1px;stroke-linecap:butt;stroke-linejoin:miter;stroke-opacity:1"
       d="m 657.75224,487.02816 c 0,0 17.38015,-0.84323 25.48306,1.7733 4.54675,1.4682 12.86414,2.82684 12.18071,7.55563 -0.61127,4.22956 -8.10316,3.04724 -12.36235,3.39672 -7.95683,0.65288 -23.82028,-2.4961 -23.82028,-2.4961"
       id="path3173"
       inkscape:connector-curvature="0"
       sodipodi:nodetypes="csssc" />
    <path
       style="fill:none;stroke:#000000;stroke-width:1px;stroke-linecap:butt;stroke-linejoin:miter;stroke-opacity:1"
       d="m 682.51252,487.13867 -2.78446,14.06072"
       id="path3175"
       inkscape:connector-curvature="0" />
    <path
       sodipodi:nodetypes="csssc"
       inkscape:connector-curvature="0"
       id="path3177"
       d="m 652.42509,514.49279 c 0,0 17.38015,-0.84323 25.48306,1.7733 4.54675,1.4682 12.86414,2.82684 12.18071,7.55563 -0.61127,4.22956 -8.10316,3.04724 -12.36235,3.39672 -7.95683,0.65288 -23.82028,-2.4961 -23.82028,-2.4961"
       style="fill:none;stroke:#000000;stroke-width:1px;stroke-linecap:butt;stroke-linejoin:miter;stroke-opacity:1" />
    <path
       inkscape:connector-curvature="0"
       id="path3179"
       d="m 677.18537,514.6033 -2.78446,14.06072"
       style="fill:none;stroke:#000000;stroke-width:1px;stroke-linecap:butt;stroke-linejoin:miter;stroke-opacity:1" />
    <path
       style="fill:none;stroke:#000000;stroke-width:1px;stroke-linecap:butt;stroke-linejoin:miter;stroke-opacity:1"
       d="m 244.87179,372.29961 c 0,0 24.72041,3.91963 37.17949,3.84615 11.18464,-0.066 22.29244,-2.05758 33.33334,-3.84615 55.59798,-9.00661 165.38461,-34.61538 165.38461,-34.61538"
       id="path3181"
       inkscape:connector-curvature="0"
       sodipodi:nodetypes="cssc" />
    <path
       style="fill:none;stroke:#000000;stroke-width:1px;stroke-linecap:butt;stroke-linejoin:miter;stroke-opacity:1"
       d="m 483.33333,324.86371 c 0,0 -6.76071,15.10106 -6.41025,23.07693 0.32057,7.29553 7.6923,20.51282 7.6923,20.51282"
       id="path3183"
       inkscape:connector-curvature="0"
       sodipodi:nodetypes="csc" />
    <path
       style="fill:none;stroke:#000000;stroke-width:1px;stroke-linecap:butt;stroke-linejoin:miter;stroke-opacity:1"
       d="M 257.69231,374.86371 C 257.69231,369.7355 250,276.14576 250,276.14576 l 24.35897,-7.6923"
       id="path3185"
       inkscape:connector-curvature="0"
       sodipodi:nodetypes="ccc" />
    <path
       style="fill:none;stroke:#000000;stroke-width:1px;stroke-linecap:butt;stroke-linejoin:miter;stroke-opacity:1"
       d="m 243.58974,408.19705 -1.28205,-17.94872 55.12821,-2.5641 -3.84616,14.10256 -7.6923,21.79487"
       id="path3187"
       inkscape:connector-curvature="0" />
    <path
       style="fill:none;stroke:#000000;stroke-width:1px;stroke-linecap:butt;stroke-linejoin:miter;stroke-opacity:1"
       d="m 257.69231,388.96628 -2.5641,119.23077 c 0,0 5.62762,-2.86139 7.6923,-1.28205 3.41125,2.60937 2.94738,8.86171 1.28205,12.82051 -1.06104,2.52229 -7.6923,8.97435 -7.6923,8.97435"
       id="path3189"
       inkscape:connector-curvature="0"
       sodipodi:nodetypes="ccssc" />
    <path
       style="fill:none;stroke:#000000;stroke-width:1px;stroke-linecap:butt;stroke-linejoin:miter;stroke-opacity:1"
       d="m 669.23077,423.58166 c 0,0 8.17666,0.84508 10.25641,3.84616 1.4605,2.1075 1.43751,5.56905 0,7.6923 -2.58041,3.81135 -12.82051,5.12821 -12.82051,5.12821"
       id="path3191"
       inkscape:connector-curvature="0"
       sodipodi:nodetypes="cssc" />
    <path
       sodipodi:nodetypes="cssc"
       inkscape:connector-curvature="0"
       id="path3193"
       d="m 655.9106,245.87902 c 0,0 7.87376,-2.3613 10.94692,-0.38961 2.15812,1.38461 3.46684,4.58931 2.95543,7.10189 -0.91801,4.51023 -9.86621,9.66033 -9.86621,9.66033"
       style="fill:none;stroke:#000000;stroke-width:1px;stroke-linecap:butt;stroke-linejoin:miter;stroke-opacity:1" />
  </g>
</svg>
